<svg width="32" height="32" viewBox="0 0 32 32" fill="none" xmlns="http://www.w3.org/2000/svg">
<circle cx="15.8007" cy="15.6022" r="4" transform="rotate(112.5 15.8007 15.6022)" stroke="black"/>
<path d="M24.1948 20.1616C22.6999 19.5424 21.4497 18.7871 20.6356 18.081C20.2265 17.7262 19.9495 17.4027 19.7995 17.135C19.646 16.861 19.6656 16.724 19.6875 16.671C19.7095 16.6181 19.7925 16.5073 20.0948 16.4221C20.3901 16.3389 20.8147 16.306 21.3549 16.3444C22.4298 16.4208 23.848 16.7708 25.3429 17.39C26.8378 18.0092 28.0881 18.7645 28.9022 19.4705C29.3113 19.8254 29.5883 20.1489 29.7382 20.4166C29.8917 20.6906 29.8721 20.8276 29.8502 20.8806C29.8283 20.9335 29.7452 21.0442 29.443 21.1294C29.1476 21.2127 28.723 21.2456 28.1828 21.2072C27.1079 21.1308 25.6897 20.7808 24.1948 20.1616Z" stroke="black"/>
<path d="M25.9594 16.5951C24.3413 16.5951 22.8972 16.3757 21.8749 16.0349C21.3611 15.8637 20.9814 15.6708 20.7404 15.4808C20.4937 15.2865 20.4594 15.1523 20.4594 15.0951C20.4594 15.0378 20.4937 14.9036 20.7404 14.7093C20.9814 14.5194 21.3611 14.3264 21.8749 14.1552C22.8972 13.8144 24.3413 13.5951 25.9594 13.5951C27.5774 13.5951 29.0216 13.8144 30.0439 14.1552C30.5577 14.3264 30.9374 14.5194 31.1784 14.7093C31.425 14.9036 31.4594 15.0378 31.4594 15.0951C31.4594 15.1523 31.425 15.2865 31.1784 15.4808C30.9374 15.6708 30.5577 15.8637 30.0439 16.0349C29.0216 16.3757 27.5774 16.5951 25.9594 16.5951Z" stroke="black"/>
<path d="M25.3157 13.2846C23.8208 13.9038 22.4027 14.2538 21.3277 14.3302C20.7875 14.3686 20.3629 14.3356 20.0676 14.2524C19.7653 14.1672 19.6823 14.0564 19.6603 14.0035C19.6384 13.9506 19.6188 13.8135 19.7723 13.5396C19.9223 13.2719 20.1993 12.9483 20.6084 12.5935C21.4225 11.8874 22.6728 11.1321 24.1677 10.5129C25.6626 9.89373 27.0807 9.54374 28.1556 9.46735C28.6958 9.42896 29.1204 9.46187 29.4158 9.54511C29.718 9.6303 29.8011 9.74108 29.823 9.794C29.8449 9.84692 29.8645 9.984 29.711 10.2579C29.5611 10.5256 29.2841 10.8492 28.875 11.204C28.0609 11.9101 26.8106 12.6654 25.3157 13.2846Z" stroke="black"/>
<path d="M24.4033 9.83823C23.2591 10.9824 22.0829 11.8484 21.119 12.3304C20.6346 12.5725 20.2297 12.7046 19.925 12.7408C19.6132 12.7777 19.494 12.7072 19.4535 12.6667C19.413 12.6262 19.3425 12.507 19.3794 12.1952C19.4156 11.8905 19.5476 11.4856 19.7898 11.0012C20.2718 10.0373 21.1378 8.86105 22.282 7.71691C23.4261 6.57276 24.6024 5.70671 25.5662 5.22478C26.0506 4.98258 26.4555 4.85049 26.7602 4.81438C27.0721 4.77743 27.1912 4.84798 27.2317 4.88848C27.2722 4.92898 27.3428 5.04813 27.3058 5.35996C27.2697 5.66467 27.1376 6.06957 26.8954 6.55396C26.4135 7.51782 25.5474 8.69408 24.4033 9.83823Z" stroke="black"/>
<path d="M18.137 6C18.137 7.61807 17.9176 9.0622 17.5769 10.0845C17.4056 10.5983 17.2127 10.978 17.0228 11.219C16.8284 11.4656 16.6943 11.5 16.637 11.5C16.5797 11.5 16.4456 11.4656 16.2512 11.219C16.0613 10.978 15.8684 10.5983 15.6971 10.0845C15.3563 9.0622 15.137 7.61807 15.137 6C15.137 4.38193 15.3563 2.9378 15.6971 1.91547C15.8684 1.4017 16.0613 1.02199 16.2512 0.780997C16.4456 0.534367 16.5797 0.5 16.637 0.5C16.6943 0.5 16.8284 0.534367 17.0228 0.780997C17.2127 1.02199 17.4056 1.4017 17.5769 1.91547C17.9176 2.9378 18.137 4.38193 18.137 6Z" stroke="black"/>
<path d="M14.1667 5.73465C14.7859 7.22955 15.1359 8.64769 15.2123 9.72261C15.2507 10.2628 15.2177 10.6874 15.1345 10.9828C15.0493 11.285 14.9385 11.3681 14.8856 11.39C14.8327 11.4119 14.6956 11.4315 14.4217 11.278C14.154 11.1281 13.8304 10.8511 13.4756 10.442C12.7695 9.62786 12.0142 8.3776 11.395 6.8827C10.7758 5.3878 10.4258 3.96965 10.3494 2.89473C10.3111 2.35453 10.344 1.9299 10.4272 1.63458C10.5124 1.33234 10.6232 1.24925 10.6761 1.22733C10.729 1.20542 10.8661 1.18583 11.14 1.33931C11.4077 1.48928 11.7313 1.76626 12.0861 2.17539C12.7922 2.98948 13.5475 4.23975 14.1667 5.73465Z" stroke="black"/>
<path d="M10.4306 7.21349C11.5748 8.35764 12.4408 9.5339 12.9227 10.4978C13.1649 10.9822 13.297 11.387 13.3331 11.6918C13.3701 12.0036 13.2995 12.1227 13.259 12.1632C13.2185 12.2037 13.0994 12.2743 12.7876 12.2373C12.4829 12.2012 12.078 12.0691 11.5936 11.8269C10.6297 11.345 9.45345 10.479 8.3093 9.33481C7.16515 8.19066 6.2991 7.0144 5.81717 6.05054C5.57498 5.56615 5.44289 5.16125 5.40677 4.85655C5.36982 4.54472 5.44037 4.42556 5.48087 4.38506C5.52137 4.34456 5.64053 4.27401 5.95236 4.31097C6.25706 4.34708 6.66196 4.47917 7.14635 4.72137C8.11021 5.20329 9.28647 6.06934 10.4306 7.21349Z" stroke="black"/>
<path d="M7.21308 10.2992C8.70798 10.9185 9.95825 11.6738 10.7723 12.3798C11.1815 12.7347 11.4585 13.0582 11.6084 13.3259C11.7619 13.5998 11.7423 13.7369 11.7204 13.7898C11.6985 13.8427 11.6154 13.9535 11.3132 14.0387C11.0178 14.122 10.5932 14.1549 10.053 14.1165C8.97808 14.0401 7.55993 13.6901 6.06503 13.0709C4.57013 12.4517 3.31987 11.6964 2.50577 10.9903C2.09664 10.6355 1.81966 10.3119 1.66969 10.0443C1.51622 9.77031 1.5358 9.63322 1.55772 9.58031C1.57964 9.52739 1.66272 9.41661 1.96496 9.33142C2.26029 9.24818 2.68492 9.21527 3.22512 9.25366C4.30003 9.33005 5.71818 9.68004 7.21308 10.2992Z" stroke="black"/>
<path d="M21.2839 7.59075C20.6647 9.08565 19.9094 10.3359 19.2033 11.15C18.8485 11.5591 18.525 11.8361 18.2573 11.9861C17.9833 12.1396 17.8463 12.12 17.7933 12.0981C17.7404 12.0761 17.6296 11.9931 17.5444 11.6908C17.4612 11.3955 17.4283 10.9709 17.4667 10.4307C17.5431 9.35575 17.8931 7.9376 18.5123 6.4427C19.1315 4.9478 19.8868 3.69754 20.5928 2.88344C20.9477 2.47431 21.2712 2.19733 21.5389 2.04736C21.8129 1.89389 21.9499 1.91347 22.0029 1.93539C22.0558 1.95731 22.1665 2.04039 22.2517 2.34263C22.335 2.63796 22.3679 3.06259 22.3295 3.60279C22.2531 4.67771 21.9031 6.09585 21.2839 7.59075Z" stroke="black"/>
<path d="M6.55779 13.6579C8.16202 13.8691 9.56517 14.275 10.5343 14.7463C11.0213 14.9832 11.3726 15.224 11.5867 15.4438C11.8059 15.6687 11.8224 15.8061 11.815 15.8629C11.8075 15.9197 11.7559 16.0482 11.486 16.2087C11.2223 16.3656 10.8206 16.5073 10.2889 16.61C9.23085 16.8144 7.77044 16.8434 6.16622 16.6322C4.56199 16.421 3.15884 16.015 2.18974 15.5437C1.70272 15.3069 1.35144 15.066 1.1373 14.8463C0.918145 14.6214 0.901581 14.4839 0.909057 14.4271C0.916534 14.3703 0.968115 14.2418 1.23801 14.0813C1.50173 13.9245 1.90336 13.7828 2.4351 13.6801C3.49316 13.4756 4.95357 13.4467 6.55779 13.6579Z" stroke="black"/>
<path d="M5.92497 17.5181C7.4879 17.0993 8.9396 16.9374 10.0153 17.002C10.5559 17.0344 10.9726 17.1225 11.2545 17.2436C11.543 17.3675 11.611 17.4881 11.6258 17.5435C11.6406 17.5988 11.6421 17.7373 11.4542 17.9888C11.2706 18.2347 10.9537 18.5193 10.5018 18.8177C9.60251 19.4114 8.26436 19.9971 6.70142 20.4159C5.13849 20.8346 3.68679 20.9965 2.6111 20.932C2.07051 20.8995 1.65381 20.8115 1.37187 20.6904C1.08334 20.5665 1.01543 20.4458 1.0006 20.3905C0.985779 20.3352 0.984256 20.1967 1.17218 19.9451C1.3558 19.6993 1.67264 19.4147 2.12459 19.1163C3.02388 18.5225 4.36203 17.9369 5.92497 17.5181Z" stroke="black"/>
<path d="M7.21863 20.56C8.50233 19.575 9.78157 18.8699 10.8001 18.5179C11.3119 18.341 11.7306 18.2629 12.0374 18.2668C12.3514 18.2709 12.4603 18.3564 12.4952 18.4018C12.5301 18.4473 12.5845 18.5746 12.5071 18.879C12.4316 19.1763 12.2478 19.5605 11.9444 20.0092C11.3408 20.9019 10.3286 21.955 9.04491 22.9401C7.76121 23.9251 6.48197 24.6302 5.46345 24.9822C4.95159 25.1591 4.53292 25.2372 4.22611 25.2332C3.91212 25.2292 3.80319 25.1437 3.76833 25.0982C3.73346 25.0528 3.67906 24.9254 3.75641 24.6211C3.83198 24.3237 4.01579 23.9395 4.31914 23.4909C4.92275 22.5982 5.93493 21.545 7.21863 20.56Z" stroke="black"/>
<path d="M12.9303 25.1833C13.1415 23.5791 13.5475 22.1759 14.0188 21.2068C14.2556 20.7198 14.4965 20.3685 14.7162 20.1544C14.9411 19.9352 15.0786 19.9186 15.1354 19.9261C15.1922 19.9336 15.3207 19.9852 15.4812 20.2551C15.638 20.5188 15.7797 20.9204 15.8825 21.4522C16.0869 22.5102 16.1159 23.9706 15.9047 25.5749C15.6935 27.1791 15.2875 28.5822 14.8162 29.5513C14.5793 30.0384 14.3385 30.3896 14.1188 30.6038C13.8939 30.8229 13.7564 30.8395 13.6996 30.832C13.6428 30.8245 13.5143 30.773 13.3538 30.5031C13.1969 30.2393 13.0552 29.8377 12.9525 29.306C12.7481 28.2479 12.7191 26.7875 12.9303 25.1833Z" stroke="black"/>
<path d="M17.2743 25.2948C16.8555 23.7319 16.6936 22.2802 16.7582 21.2045C16.7906 20.6639 16.8787 20.2472 16.9998 19.9652C17.1237 19.6767 17.2444 19.6088 17.2997 19.594C17.355 19.5791 17.4935 19.5776 17.745 19.7655C17.9909 19.9492 18.2755 20.266 18.5739 20.718C19.1676 21.6172 19.7533 22.9554 20.1721 24.5183C20.5909 26.0813 20.7527 27.533 20.6882 28.6087C20.6557 29.1492 20.5677 29.5659 20.4466 29.8479C20.3227 30.1364 20.202 30.2043 20.1467 30.2192C20.0914 30.234 19.9529 30.2355 19.7013 30.0476C19.4555 29.864 19.1709 29.5471 18.8725 29.0952C18.2787 28.1959 17.6931 26.8577 17.2743 25.2948Z" stroke="black"/>
<path d="M20.6629 23.603C19.6778 22.3193 18.9727 21.0401 18.6207 20.0216C18.4438 19.5097 18.3657 19.091 18.3697 18.7842C18.3738 18.4702 18.4593 18.3613 18.5047 18.3264C18.5501 18.2916 18.6775 18.2372 18.9818 18.3145C19.2792 18.3901 19.6634 18.5739 20.112 18.8773C21.0047 19.4809 22.0579 20.493 23.0429 21.7767C24.0279 23.0604 24.733 24.3397 25.085 25.3582C25.2619 25.8701 25.34 26.2887 25.3361 26.5955C25.332 26.9095 25.2465 27.0185 25.2011 27.0533C25.1556 27.0882 25.0283 27.1426 24.724 27.0653C24.4266 26.9897 24.0424 26.8059 23.5937 26.5025C22.701 25.8989 21.6479 24.8867 20.6629 23.603Z" stroke="black"/>
<path d="M13.1011 24.7898C12.4818 26.2847 11.7265 27.535 11.0205 28.3491C10.6656 28.7582 10.3421 29.0352 10.0744 29.1851C9.80047 29.3386 9.66339 29.319 9.61047 29.2971C9.55756 29.2752 9.44678 29.1921 9.36159 28.8899C9.27835 28.5945 9.24543 28.1699 9.28382 27.6297C9.36022 26.5548 9.71021 25.1367 10.3294 23.6418C10.9486 22.1469 11.7039 20.8966 12.41 20.0825C12.7648 19.6734 13.0883 19.3964 13.356 19.2464C13.63 19.0929 13.7671 19.1125 13.82 19.1344C13.8729 19.1564 13.9837 19.2394 14.0689 19.5417C14.1521 19.837 14.185 20.2616 14.1466 20.8018C14.0703 21.8768 13.7203 23.2949 13.1011 24.7898Z" stroke="black"/>
</svg>
