<svg width="33" height="29" viewBox="0 0 33 29" fill="none" xmlns="http://www.w3.org/2000/svg">
<ellipse cx="16.4902" cy="18.7932" rx="8.95764" ry="9.83585" fill="black"/>
<circle cx="19.6262" cy="22.3711" r="2.02275" fill="#D9D9D9"/>
<circle cx="13.3543" cy="22.3711" r="2.02275" fill="#D9D9D9"/>
<path d="M22.6839 13.2534L26.2271 9.55099L29.2237 12.4921M23.9859 17.0151L27.5569 13.2534L32.512 17.5694M23.9859 21.9876L27.8694 18.3424L31.5913 21.8252M21.9856 25.932L27.1434 22.8064L30.1181 25.932" stroke="black"/>
<path d="M10.8315 13.2534L7.69289 9.21804L4.1969 12.603M9.52902 17.0151L5.95675 13.2534L0.999999 17.5694M9.52902 21.9876L5.64417 18.3424L1.92101 21.8252M11.53 25.932L6.37041 22.8064L3.39465 25.932" stroke="black"/>
<circle cx="13.3543" cy="22.3711" r="0.443939" fill="black"/>
<circle cx="19.6262" cy="22.3711" r="0.443939" fill="black"/>
<path d="M16.4339 9.02403L16.4902 0.942078" stroke="black"/>
</svg>
