<svg width="26" height="26" viewBox="0 0 26 26" fill="none" xmlns="http://www.w3.org/2000/svg">
<path d="M18.2632 1C17.8842 1.74286 17.4604 2.48037 17 3.20918M18.2632 1C18.7877 1 19.5389 1.12311 20.3684 1.45299M18.2632 1C18.6678 2.28127 19.8889 4.48598 22.0526 5.61752M25 6.33333C22.8419 7.57585 19.4955 9.86047 16.196 12.8095M25 6.33333C24.2297 6.33333 23.5287 6.20421 22.8947 5.98287M25 6.33333C24.5722 5.24967 24.0268 4.37243 23.4257 3.66667M7.73684 23.1468C7.42331 23.7579 7.14102 24.3761 6.89474 25C4.92982 24.3651 1 22.2571 1 18.9048C1.49292 18.5818 2.06036 18.1907 2.68421 17.7386M7.73684 23.1468C7.03509 23.0027 5.54737 22.4857 5.21053 21.5714L10.2632 15.8571C10.5439 16.295 11.2737 17.1536 11.9474 17.0853M7.73684 23.1468C8.82868 21.019 10.2994 18.9779 11.9474 17.0853M11.9474 17.0853C12.4338 16.5268 12.9356 15.9811 13.4478 15.4499M2.68421 17.7386C2.68421 18.1273 2.93684 19.0571 3.94737 19.6667M2.68421 17.7386C2.96762 17.5332 3.26268 17.3152 3.56768 17.0853M3.56768 17.0853C3.83459 17.6918 4.53684 18.9048 5.21053 18.9048M3.56768 17.0853C3.8896 16.8427 4.2226 16.5868 4.56469 16.3184M4.56469 16.3184C4.77997 16.657 5.37895 17.4152 6.05263 17.7386M4.56469 16.3184C4.91713 16.0419 5.27921 15.7521 5.64876 15.4499M5.64876 15.4499C5.92373 15.8396 6.64211 16.619 7.31579 16.619M5.64876 15.4499C6.05599 15.117 6.47229 14.769 6.89474 14.4071M6.89474 14.4071C7.03509 14.7722 7.48421 15.4972 8.15789 15.4762M6.89474 14.4071C7.17305 14.1686 7.45403 13.9242 7.73684 13.674M7.73684 13.674C7.73684 14.0295 7.98947 14.8115 9 15.0952M7.73684 13.674C8.3232 13.1554 8.91742 12.6123 9.51207 12.0476M9.51207 12.0476C10.0609 13.1817 11.6165 15.4499 13.4478 15.4499M9.51207 12.0476C9.76254 11.8098 10.0131 11.5681 10.2632 11.3229M13.4478 15.4499C13.7893 15.0957 14.1354 14.7479 14.4846 14.4071M10.2632 11.3229C10.9722 12.3509 12.8091 14.4071 14.4846 14.4071M10.2632 11.3229C10.5306 11.0606 10.7976 10.7941 11.0633 10.5238M14.4846 14.4071C15.0493 13.8558 15.6219 13.3226 16.196 12.8095M11.0633 10.5238C11.779 11.5739 13.7158 13.674 15.7368 13.674M11.0633 10.5238C11.3598 10.2221 11.6548 9.91565 11.9474 9.60476M11.9474 9.60476C12.6745 10.673 14.5422 12.8095 16.196 12.8095M11.9474 9.60476C12.3678 9.15796 12.7831 8.70204 13.1905 8.2381M13.1905 8.2381C13.4779 8.74603 14.3895 9.8381 15.7368 10.1429L19.5263 6.33333C18.6842 6.02835 17 4.97653 17 3.20918M13.1905 8.2381C14.5923 6.64158 15.9003 4.95016 17 3.20918M20.3684 1.45299C19.6667 1.96764 19.0211 3.52106 22.0526 5.61752M20.3684 1.45299C21.3604 1.84748 22.4642 2.53769 23.4257 3.66667M22.0526 5.61752C22.319 5.75681 22.5996 5.87983 22.8947 5.98287M22.8947 5.98287C23.427 5.95421 24.2126 5.59008 23.8042 4.42857M23.4257 3.66667C23.6029 3.95232 23.7256 4.20519 23.8042 4.42857M23.8042 4.42857C22.3782 3.4127 20.0316 1.99048 22.0526 4.42857" stroke="black"/>
</svg>
