<svg width="30" height="28" viewBox="0 0 30 28" fill="none" xmlns="http://www.w3.org/2000/svg">
<path fill-rule="evenodd" clip-rule="evenodd" d="M14.5889 10.4998V6.99984C10.5648 6.99984 7.29447 10.1382 7.29447 13.9998C7.29447 15.1782 7.59841 16.2982 8.14549 17.2665L6.3705 18.9698C5.42222 17.5348 4.86298 15.8315 4.86298 13.9998C4.86298 8.84317 9.21535 4.6665 14.5889 4.6665V1.1665L19.4519 5.83317L14.5889 10.4998ZM21.0324 10.7332L22.8074 9.02984C23.7557 10.4648 24.3149 12.1682 24.3149 13.9998C24.3149 19.1565 19.9625 23.3332 14.5889 23.3332V26.8332L9.72596 22.1665L14.5889 17.4998V20.9998C18.6131 20.9998 21.8834 17.8615 21.8834 13.9998C21.8834 12.8215 21.5673 11.7132 21.0324 10.7332Z" fill="black"/>
</svg>
