<svg width="40" height="41" viewBox="0 0 40 41" fill="none" xmlns="http://www.w3.org/2000/svg">
<path d="M8.01162 33.0521C6.58538 33.5707 8.22772 31.8095 9.22716 30.8641C8.74096 28.6761 6.8771 29.4865 5.41846 28.8382C3.95982 28.1899 5.82365 26.6502 8.01162 26.3261C10.1996 26.0019 8.01162 24.5433 5.41846 25.2726C2.82531 26.0019 1.2046 24.0571 1.2046 23.814C1.2046 23.5709 1.2046 23.1657 2.98739 23.1657C4.77018 23.1657 5.82365 23.1657 6.8771 22.5984C7.93055 22.0312 11.3341 20.7346 6.8771 19.438C2.42013 18.1415 2.17703 20.2484 1.2046 18.6277C0.232171 17.0069 2.82531 17.8173 6.8771 16.7638C10.9289 15.7104 6.06675 14.4138 5.82365 13.5224C5.58054 12.631 7.03918 14.1707 9.71336 14.0087C12.3875 13.8466 11.3341 12.631 9.71336 10.4431C8.09265 8.2551 8.74093 6.63439 8.49783 5.82402C8.25472 5.01365 10.4427 5.82402 10.6858 7.28269C10.9289 8.74135 10.6048 10.4431 13.6841 10.9293C16.7635 11.4155 14.9807 10.4431 17.0066 9.71375C19.0325 8.98443 17.3307 7.20164 17.3307 4.93264C17.3307 2.66364 20.248 2.58261 19.7618 5.82402C19.3728 8.41716 20.7882 9.01143 21.5446 8.98443C21.8147 8.98443 23.1167 8.51442 26.1636 6.63439C28.6757 4.77057 26.4067 8.98443 25.5964 9.71375C24.786 10.4431 27.6223 10.5241 27.6223 10.4431C27.6223 10.362 27.6223 11.3345 30.2154 8.98443C33.3758 7.60682 31.9982 6.63438 32.8896 5.82402C33.781 5.01367 34.0241 8.25511 32.8896 8.98443C31.7551 9.71375 29.405 10.7672 31.2689 12.1448C32.7599 13.2469 32.9706 14.819 32.8896 15.4673C32.5925 16.6828 32.4034 18.8546 34.0241 17.8173C36.05 16.5207 36.212 16.6018 36.9414 16.7638C37.6707 16.9259 36.212 18.0604 34.9155 18.6277C33.6189 19.1949 34.0241 20.1674 36.212 20.7346C38.4 21.3019 37.7517 21.626 38.319 22.5984C38.8862 23.5709 36.9414 22.7605 36.212 23.1657C35.4827 23.5709 35.4827 23.976 35.4827 26.3261C35.4827 28.6761 37.3465 27.5416 38.319 29.4865C39.2914 31.4314 38.1569 31.7555 36.9414 29.4865C35.7258 27.2175 35.2396 29.7296 34.0241 29.4865C32.8085 29.2434 32.9706 31.8365 32.8896 32.5658C32.8248 33.1493 31.7821 33.7274 31.2689 33.9435C31.1338 34.2136 31.4958 35.2076 34.0241 37.0228C37.1845 39.2918 33.0517 37.5901 31.9982 36.4556C30.9447 35.3211 30.2154 35.4831 28.3516 35.5642C26.4878 35.6452 27.3792 36.4556 27.6223 38.4814C27.8654 40.5073 26.2447 39.0487 23.6515 37.5901C21.0584 36.1314 20.8153 37.0228 19.7618 38.4814C18.7083 39.9401 18.3842 39.2108 17.3307 36.4556C16.2773 33.7003 15.2238 36.8607 13.6841 38.4814C12.1444 40.1022 9.22716 40.2642 11.3341 38.4814C13.441 36.6987 12.7927 36.1314 12.0634 33.0521C11.3341 29.9727 9.79441 32.4038 8.01162 33.0521Z" fill="black"/>
<path d="M6.39089 33.9435C4.53021 37.3731 2.00925 37.7625 2.98739 35.5642C3.49637 34.4202 5.44547 34.9699 6.39089 33.9435Z" fill="black"/>
<path d="M34.029 4.19291C34.8144 2.51682 36.4885 -0.314304 36.9414 1.69122C37.3584 3.53816 35.3435 4.11207 34.029 4.19291Z" fill="black"/>
<path d="M5.41846 9.71375C3.9058 9.25455 1.09115 7.99579 1.93393 6.63439C2.7767 5.27299 4.6081 8.12005 5.41846 9.71375Z" fill="black"/>
<path d="M34.0241 4.20333C34.8074 2.52859 36.4876 -0.318465 36.9414 1.69122C37.3952 3.70091 34.9695 4.20333 33.6999 4.20333M9.22716 30.8641C8.22772 31.8095 6.58538 33.5707 8.01162 33.0521C9.79441 32.4038 11.3341 29.9727 12.0634 33.0521C12.7927 36.1314 13.441 36.6987 11.3341 38.4814C9.22716 40.2642 12.1444 40.1022 13.6841 38.4814C15.2238 36.8607 16.2773 33.7003 17.3307 36.4556C18.3842 39.2108 18.7083 39.9401 19.7618 38.4814C20.8153 37.0228 21.0584 36.1314 23.6515 37.5901C26.2447 39.0487 27.8654 40.5073 27.6223 38.4814C27.3792 36.4556 26.4878 35.6452 28.3516 35.5642C30.2154 35.4831 30.9447 35.3211 31.9982 36.4556C33.0517 37.5901 37.1845 39.2918 34.0241 37.0228C31.4958 35.2076 31.1338 34.2136 31.2689 33.9435C31.7821 33.7274 32.8248 33.1493 32.8896 32.5658C32.9706 31.8365 32.8085 29.2434 34.0241 29.4865C35.2396 29.7296 35.7258 27.2175 36.9414 29.4865C38.1569 31.7555 39.2914 31.4314 38.319 29.4865C37.3465 27.5416 35.4827 28.6761 35.4827 26.3261C35.4827 23.976 35.4827 23.5709 36.212 23.1657C36.9414 22.7605 38.8862 23.5709 38.319 22.5984C37.7517 21.626 38.4 21.3019 36.212 20.7346C34.0241 20.1674 33.6189 19.1949 34.9155 18.6277C36.212 18.0604 37.6707 16.9259 36.9414 16.7638C36.212 16.6018 36.05 16.5207 34.0241 17.8173C32.4034 18.8546 32.5925 16.6828 32.8896 15.4673C32.9706 14.819 32.7599 13.2469 31.2689 12.1448C29.405 10.7672 31.7551 9.71375 32.8896 8.98443C34.0241 8.25511 33.781 5.01367 32.8896 5.82402C31.9982 6.63438 33.3758 7.60682 30.2154 8.98443C27.6223 11.3345 27.6223 10.362 27.6223 10.4431C27.6223 10.5241 24.786 10.4431 25.5964 9.71375C26.4067 8.98443 28.6757 4.77057 26.1636 6.63439C23.1167 8.51442 21.8147 8.98443 21.5446 8.98443C20.7882 9.01143 19.3728 8.41716 19.7618 5.82402C20.248 2.58261 17.3307 2.66364 17.3307 4.93264C17.3307 7.20164 19.0325 8.98443 17.0066 9.71375C14.9807 10.4431 16.7635 11.4155 13.6841 10.9293C10.6048 10.4431 10.9289 8.74135 10.6858 7.28269C10.4427 5.82402 8.25472 5.01365 8.49783 5.82402C8.74093 6.63439 8.09265 8.2551 9.71336 10.4431C11.3341 12.631 12.3875 13.8466 9.71336 14.0087C7.03918 14.1707 5.58054 12.631 5.82365 13.5224C6.06675 14.4138 10.9289 15.7104 6.8771 16.7638C2.82531 17.8173 0.232171 17.0069 1.2046 18.6277C2.17703 20.2484 2.42013 18.1415 6.8771 19.438C11.3341 20.7346 7.93055 22.0312 6.8771 22.5984C5.82365 23.1657 4.77018 23.1657 2.98739 23.1657C1.2046 23.1657 1.2046 23.5709 1.2046 23.814C1.2046 24.0571 2.82531 26.0019 5.41846 25.2726C8.01162 24.5433 10.1996 26.0019 8.01162 26.3261C5.82365 26.6502 3.95982 28.1899 5.41846 28.8382C6.8771 29.4865 8.74096 28.6761 9.22716 30.8641ZM6.39089 33.9435C4.53021 37.3731 2.00925 37.7625 2.98739 35.5642C3.49637 34.4202 5.44547 34.9699 6.39089 33.9435ZM5.41846 9.71375C3.9058 9.25455 1.09115 7.99579 1.93393 6.63439C2.7767 5.27299 4.60811 8.12005 5.41846 9.71375Z" stroke="black"/>
</svg>
