<svg width="32" height="32" viewBox="0 0 32 32" fill="none" xmlns="http://www.w3.org/2000/svg">
<path fill-rule="evenodd" clip-rule="evenodd" d="M11.4286 0H20.5714V3.04762H11.4286V0ZM14.4762 19.8095V10.6667H17.5238V19.8095H14.4762ZM26.7124 9.73714L28.8762 7.57333C28.2209 6.79619 27.5048 6.06476 26.7276 5.42476L24.5638 7.58857C22.2019 5.69905 19.2305 4.57143 16 4.57143C8.42666 4.57143 2.28571 10.7124 2.28571 18.2857C2.28571 25.859 8.41142 32 16 32C23.5886 32 29.7143 25.859 29.7143 18.2857C29.7143 15.0552 28.5867 12.0838 26.7124 9.73714ZM5.33332 18.2857C5.33332 24.1829 10.1028 28.9524 16 28.9524C21.8971 28.9524 26.6667 24.1829 26.6667 18.2857C26.6667 12.3886 21.8971 7.61905 16 7.61905C10.1028 7.61905 5.33332 12.3886 5.33332 18.2857Z" fill="black"/>
</svg>
